# xmcd
# 
# Track frame offsets:
#     150
#     35664
#     39757
#     91068
#     114216
#     162656
#     183696
#     213579
#     242027
#     271910
#     332950
# 
# Disc length: 4753
# 
# Revision: 1
# Processed by: cddbd v1.5.2PL0 Copyright (c) Steve Scherf et al.
# Submitted via: BonkEnc v1.0.8
# 
DISCID=97128f0b
DTITLE=John Coltrane and Thelonius Monk - Complete Studio Recordings
DYEAR=1957
DGENRE=Jazz
TTITLE0=Monk's Mood
TTITLE1=Abide With Me
TTITLE2=Well You Needn't
TTITLE3=Off Minor
TTITLE4=Epistrophy
TTITLE5=Crepuscule with Nellie
TTITLE6=Nutty
TTITLE7=Ruby My Dear
TTITLE8=Trinkle Tinkle
TTITLE9=Blues for Tomorrow
TTITLE10=Off Minor (alternative Take)
EXTD=YEAR: 1957
EXTT0=Wilbur Ware(b): New York,April 16,1957
EXTT1=Ray Copeland(tp);Gigi Gryce (as) - Coleman Hawkins(ts);Wilbr Ware(b);Art Blakey(d): New York,June 26, 1957
EXTT2=Ray Copeland(tp);Gigi Gryce (as) - Coleman Hawkins(ts);Wilbr Ware(b);Art Blakey(d): New York,June 26, 1957
EXTT3=Ray Copeland(tp);Gigi Gryce (as) - Coleman Hawkins(ts);Wilbr Ware(b);Art Blakey(d): New York,June 26, 1957
EXTT4=Ray Copeland(tp);Gigi Gryce (as) - Coleman Hawkins(ts);Wilbr Ware(b);Art Blakey(d): New York,June 26, 1957
EXTT5=Ray Copeland(tp);Gigi Gryce (as) - Coleman Hawkins(ts);Wilbr Ware(b);Art Blakey(d): New York,June 26, 1957
EXTT6=Wilbur Ware(b) - Shadow Wilson(d): New York, July 1957
EXTT7=Wilbur Ware(b) - Shadow Wilson(d): New York, July 1957
EXTT8=Wilbur Ware(b) - Shadow Wilson(d): New York, July 1957
EXTT9=Same personnel, place and date as songs 2-6. Without Thelonious Monk
EXTT10=Same personnel, place and date as songs 2-6
PLAYORDER=
